# xmcd
#
# Track frame offsets:
#	150
#	73377
#	110559
#	154469
#	191680
#	241906
#	271373
#	319678
#
# Disc length: 4272 seconds
#
# Revision: 0
# Processed by: cddbd v1.5.1PL0 Copyright (c) Steve Scherf et al.
# Submitted via: audiograbber 1.83.01
#
DISCID=7710ae08
DTITLE=Hans Söllner - Bayaman'sissdem Babylon
DYEAR=1900
DGENRE=
TTITLE0=Der Wind
TTITLE1=Dieb
TTITLE2=Mei Angst
TTITLE3=I hintere 4-2
TTITLE4=Steh auf
TTITLE5=Steig oba
TTITLE6=Sturm
TTITLE7=Daten-CD
EXTD=
EXTT0=
EXTT1=
EXTT2=
EXTT3=
EXTT4=
EXTT5=
EXTT6=
EXTT7=
PLAYORDER=
